<?xml version="1.0" encoding="UTF-8" standalone="no"?>
<svg width="66px" height="62px" viewBox="0 0 66 62" version="1.1" xmlns="http://www.w3.org/2000/svg" xmlns:xlink="http://www.w3.org/1999/xlink">
    <defs></defs>
    <g id="Page-1" stroke="none" stroke-width="1" fill="none" fill-rule="evenodd">
        <g id="Deliver-+-Received-+-Update" transform="translate(-167.000000, 0.000000)" fill="#3E53A4">
            <g id="Deliver" transform="translate(167.794712, 0.000000)">
                <path d="M64.567429,43.0074783 C64.567429,36.1159388 60.8476278,30.0956788 55.3071336,26.8396232 L55.4754873,9.55737353 L42.6690846,5.42343356 L16.1273828,17.6072931 L15.7555432,30.6258945 L10.2187027,28.8139143 L10.2187027,15.630894 L36.8138055,3.53135185 L26.2024649,0.109331519 L0.0739182249,12.0493733 L0.0739182249,45.1917196 L25.4520404,55.7609016 L30.154701,53.4759009 C30.3830605,53.8213211 30.6381205,54.1507209 30.887981,54.4856014 C31.143041,54.8203413 31.4089218,55.1501628 31.6850612,55.4634018 C35.1232423,59.406644 40.165983,61.9035623 45.7927619,61.9035623 C56.1385029,61.9035623 64.5660237,53.4864406 64.5660237,43.1359217 C64.5660237,43.1189177 64.56504,43.1021948 64.56504,43.0851908 C64.5648994,43.0596145 64.5657426,43.0343193 64.5657426,43.0086025 M45.6927053,59.964825 C36.3672046,59.964825 28.8081526,52.4045083 28.8081526,43.0802722 C28.8081526,33.7547715 36.3680477,26.1957195 45.6927053,26.1957195 C55.0182061,26.1957195 62.577258,33.7554741 62.577258,43.0802722 C62.5773986,52.405773 55.0175035,59.964825 45.6927053,59.964825" id="Shape"></path>
                <path d="M57.2290075,40.2699744 L57.5536293,39.9408556 C57.8879477,39.6117368 57.8963794,39.1264904 57.5814541,38.8124082 L54.2249202,35.5774319 C54.0530533,35.3985385 53.8228669,35.3487913 53.5967558,35.3709949 C53.4237647,35.388842 53.2403744,35.4357787 53.1099636,35.5690001 L52.6835987,36.0082936 L42.3505054,46.1980474 L38.8423409,42.8042734 C38.5016987,42.4781057 38.0556598,42.246233 37.6285924,42.1865082 C37.2012438,42.1272049 36.8175998,42.2444061 36.5678799,42.4887859 L34.1549979,45.0083294 C33.9073859,45.2654973 33.8052214,45.6523735 33.8819502,46.0757872 C33.9585384,46.4987794 34.2081178,46.9347001 34.5615481,47.2626947 L41.6062641,54.0657009 L41.5281301,54.0035871 C41.7854385,54.2514802 42.1724553,54.3535042 42.5954474,54.2767754 C43.0184395,54.2001871 43.4545008,53.9504672 43.7826359,53.5971774 L43.7836196,53.5981611 L57.229429,40.270396" id="Shape"></path>
            </g>
        </g>
    </g>
</svg>