<?xml version="1.0" encoding="UTF-8" standalone="no"?>
<svg width="65px" height="62px" viewBox="0 0 65 62" version="1.1" xmlns="http://www.w3.org/2000/svg" xmlns:xlink="http://www.w3.org/1999/xlink">
    <defs></defs>
    <g id="Page-1" stroke="none" stroke-width="1" fill="none" fill-rule="evenodd">
        <g id="Deliver-+-Received-+-Update" fill="#3D54A5">
            <g id="Received" transform="translate(0.328125, 0.000000)">
                <path d="M64.5491602,43.0074783 C64.5491602,36.1159388 60.8294996,30.0956788 55.2890054,26.8396232 L55.4572185,9.55737353 L42.6508158,5.42329304 L16.109114,17.6071525 L15.7372744,30.625754 L10.200434,28.8137738 L10.200434,15.6307535 L36.7955368,3.53121132 L26.1841962,0.109050461 L0.0570547516,12.0492328 L0.0570547516,45.1915791 L25.4351769,55.760761 L30.1378375,53.4757604 C30.366197,53.8211806 30.6212571,54.1505804 30.8711175,54.4854609 C31.1261776,54.8202008 31.3920583,55.1500223 31.6681977,55.4632613 C35.1062383,59.4065035 40.1491195,61.9034218 45.7758985,61.9034218 C56.1216394,61.9034218 64.5491602,53.4863001 64.5491602,43.1357812 C64.5491602,43.1187772 64.548036,43.1020542 64.548036,43.0850502 C64.5478954,43.059474 64.5487386,43.0341788 64.5487386,43.008462 M45.6757013,59.9646844 C36.3502006,59.9646844 28.7911486,52.4043677 28.7911486,43.0801317 C28.7911486,33.7546309 36.3509032,26.195579 45.6757013,26.195579 C55.0004995,26.195579 62.560254,33.7553336 62.560254,43.0801317 C62.560254,52.4056325 55.00064,59.9646844 45.6757013,59.9646844" id="Shape"></path>
                <path d="M56.6851604,44.4956798 C56.6851604,45.3200226 56.0162427,45.9889403 55.1917593,45.9889403 L48.7204014,45.9889403 L48.7204014,52.4602983 C48.7204014,53.2847816 48.0514837,53.9535588 47.2278435,53.9535588 L44.2407603,53.9535588 C43.416277,53.9535588 42.7473592,53.2847816 42.7473592,52.4602983 L42.7473592,45.9889403 L36.2760013,45.9889403 C35.4512369,45.9889403 34.7826002,45.3200226 34.7826002,44.4956798 L34.7826002,41.5088776 C34.7826002,40.6848159 35.4512369,40.0160386 36.2760013,40.0160386 L42.7473592,40.0160386 L42.7473592,33.5446807 C42.7473592,32.7201974 43.416277,32.0514201 44.2407603,32.0514201 L47.2278435,32.0514201 C48.0514837,32.0514201 48.7204014,32.7201974 48.7204014,33.5446807 L48.7204014,40.0160386 L55.1917593,40.0160386 C56.0162427,40.0160386 56.6851604,40.6848159 56.6851604,41.5088776 L56.6851604,44.4956798" id="Shape"></path>
            </g>
        </g>
    </g>
</svg>