<?xml version="1.0" encoding="UTF-8" standalone="no"?>
<svg width="65px" height="62px" viewBox="0 0 65 62" version="1.1" xmlns="http://www.w3.org/2000/svg" xmlns:xlink="http://www.w3.org/1999/xlink">
    <defs></defs>
    <g id="Page-1" stroke="none" stroke-width="1" fill="none" fill-rule="evenodd">
        <g id="Deliver-+-Received-+-Update" transform="translate(-84.000000, 0.000000)" fill="#3D54A5">
            <g id="Update" transform="translate(84.061418, 0.000000)">
                <path d="M64.567429,43.0074783 C64.567429,36.1159388 60.8476278,30.0956788 55.3071336,26.8396232 L55.4754873,9.55737353 L42.6690846,5.42343356 L16.1273828,17.6072931 L15.7555432,30.6258945 L10.2187027,28.8139143 L10.2187027,15.630894 L36.8138055,3.53135185 L26.2024649,0.109331519 L0.0739182249,12.0493733 L0.0739182249,45.1917196 L25.4520404,55.7609016 L30.154701,53.4759009 C30.3830605,53.8213211 30.6381205,54.1507209 30.887981,54.4856014 C31.143041,54.8203413 31.4089218,55.1501628 31.6850612,55.4634018 C35.1232423,59.406644 40.165983,61.9035623 45.7927619,61.9035623 C56.1385029,61.9035623 64.5660237,53.4864406 64.5660237,43.1359217 C64.5660237,43.1189177 64.56504,43.1021948 64.56504,43.0851908 C64.5648994,43.0596145 64.5657426,43.0343193 64.5657426,43.0086025 M45.6927053,59.964825 C36.3672046,59.964825 28.8081526,52.4045083 28.8081526,43.0802722 C28.8081526,33.7547715 36.3680477,26.1957195 45.6927053,26.1957195 C55.0182061,26.1957195 62.577258,33.7554741 62.577258,43.0802722 C62.5773986,52.405773 55.0175035,59.964825 45.6927053,59.964825" id="Shape"></path>
                <path d="M55.9417623,37.9118987 C56.2720053,37.5751914 56.5094993,37.131682 56.5735805,36.7054577 C56.6376617,36.2788118 56.5249574,35.8939031 56.2835287,35.6413726 L53.7926532,33.1995416 C53.5382958,32.948838 53.1525438,32.8421765 52.728568,32.9139868 C52.3041706,32.985516 51.8657203,33.2300364 51.5336504,33.5796724 L49.1497174,35.997754 L53.5558619,40.3426279 L55.9417623,37.9118987" id="Shape"></path>
                <path d="M47.764383,37.4692325 L38.4304505,46.9802315 L37.6437695,52.1980712 L42.8365951,51.3246838 L52.1719329,41.8150902 L47.7650857,37.4695136" id="Shape"></path>
            </g>
        </g>
    </g>
</svg>